<?xml version="1.0" standalone="no"?><!-- Generator: Adobe Fireworks CS6, Export SVG Extension by Aaron Beall (http://fireworks.abeall.com) . Version: 0.6.1  --><!DOCTYPE svg PUBLIC "-//W3C//DTD SVG 1.1//EN" "http://www.w3.org/Graphics/SVG/1.1/DTD/svg11.dtd"><svg id="Untitled-Page%201" viewBox="0 0 6 8" style="background-color:#ffffff00" version="1.1"	xmlns="http://www.w3.org/2000/svg" xmlns:xlink="http://www.w3.org/1999/xlink" xml:space="preserve"	x="0px" y="0px" width="6px" height="8px">	<path d="M 5.3145 3.4072 C 5.4072 3.5 5.4541 3.6084 5.4541 3.7324 C 5.4541 3.8574 5.4072 3.9658 5.3145 4.0586 L 2.0977 7.2705 C 2.0049 7.3633 1.8975 7.4092 1.7744 7.4092 C 1.6523 7.4092 1.5439 7.3633 1.4512 7.2705 L 0.9727 6.792 C 0.8799 6.6992 0.834 6.5918 0.834 6.4688 C 0.834 6.3457 0.8799 6.2383 0.9727 6.1455 L 3.4053 3.7139 L 0.9727 1.3105 C 0.8799 1.2178 0.834 1.1113 0.834 0.9922 C 0.834 0.873 0.8799 0.7666 0.9727 0.6738 L 1.4512 0.1855 C 1.5439 0.0928 1.6523 0.0469 1.7773 0.0469 C 1.9014 0.0469 2.0088 0.0928 2.0977 0.1855 L 5.3145 3.4072 L 5.3145 3.4072 Z" fill="#323232"/></svg>