<?xml version="1.0" standalone="no"?><!-- Generator: Adobe Fireworks CS6, Export SVG Extension by Aaron Beall (http://fireworks.abeall.com) . Version: 0.6.1  --><!DOCTYPE svg PUBLIC "-//W3C//DTD SVG 1.1//EN" "http://www.w3.org/Graphics/SVG/1.1/DTD/svg11.dtd"><svg id="Untitled-Page%201" viewBox="0 0 120 128" style="background-color:#ffffff00" version="1.1"	xmlns="http://www.w3.org/2000/svg" xmlns:xlink="http://www.w3.org/1999/xlink" xml:space="preserve"	x="0px" y="0px" width="120px" height="128px">	<path d="M 111.0408 15.296 C 113.4388 15.296 115.5321 16.2291 117.3208 18.0953 C 119.1095 19.9948 120 22.1942 120 24.7602 L 120 118.4358 C 120 121.0018 119.1095 123.2346 117.3208 125.1341 C 115.5321 127.0336 113.4388 128 111.0408 128 L 8.9592 128 C 6.5612 128 4.4679 127.0336 2.6792 125.1341 C 0.8904 123.2346 0 121.0018 0 118.4358 L 0 24.7602 C 0 22.1942 0.8904 19.9948 2.6792 18.0953 C 4.4679 16.2291 6.5612 15.296 8.9592 15.296 L 11.943 15.296 L 11.943 14.2296 C 11.943 12.5301 12.2007 10.8305 12.7085 9.131 C 13.224 7.3981 14.0519 5.8651 15.2002 4.5322 C 16.3484 3.1992 17.8637 2.1328 19.754 1.2663 C 21.6442 0.4332 23.9406 0 26.651 0 C 29.3536 0 31.6501 0.4332 33.5403 1.2663 C 35.4306 2.1328 36.9459 3.1992 38.0941 4.5322 C 39.2423 5.8651 40.0859 7.4314 40.6249 9.1643 C 41.1638 10.8972 41.4294 12.5967 41.4294 14.2296 L 41.4294 15.296 L 45.1787 15.296 L 45.1787 14.2296 C 45.1787 12.5301 45.4364 10.8305 45.9442 9.131 C 46.4597 7.3981 47.2876 5.8651 48.4359 4.5322 C 49.5841 3.1992 51.0994 2.1328 52.9897 1.2663 C 54.8799 0.4332 57.1763 0 59.8867 0 C 62.5893 0 64.8858 0.4332 66.776 1.2663 C 68.6663 2.1328 70.2128 3.1992 71.4079 4.5322 C 72.6108 5.8651 73.4778 7.4314 74.0168 9.1643 C 74.5479 10.8972 74.8213 12.5967 74.8213 14.2296 L 74.8213 15.296 L 78.5706 15.296 L 78.5706 14.2296 C 78.5706 12.5301 78.8362 10.8305 79.3751 9.131 C 79.9141 7.3981 80.7498 5.8651 81.8981 4.5322 C 83.0541 3.1992 84.5538 2.1328 86.4206 1.2663 C 88.2796 0.4332 90.5917 0 93.349 0 C 96.0594 0 98.3558 0.4332 100.246 1.2663 C 102.1285 2.1328 103.6516 3.1992 104.7999 4.5322 C 105.9481 5.8651 106.776 7.4314 107.2915 9.1643 C 107.7993 10.8972 108.057 12.5967 108.057 14.2296 L 108.057 15.296 L 111.0408 15.296 L 111.0408 15.296 ZM 33.6965 47.221 L 12.0992 47.221 L 12.0992 67.8157 L 33.6965 67.8157 L 33.6965 47.221 ZM 33.6965 70.9815 L 12.0992 70.9815 L 12.0992 91.5762 L 33.6965 91.5762 L 33.6965 70.9815 ZM 33.6965 94.6753 L 12.0992 94.6753 L 12.0992 115.1034 L 33.6965 115.1034 L 33.6965 94.6753 ZM 20.8319 32.8581 C 20.8319 35.9573 22.769 37.4902 26.651 37.4902 C 30.5253 37.4902 32.4702 35.9573 32.4702 32.8581 L 32.4702 14.2296 C 32.4702 11.1304 30.5253 9.5642 26.651 9.5642 C 22.769 9.5642 20.8319 11.1304 20.8319 14.2296 L 20.8319 32.8581 ZM 58.5042 47.221 L 36.6803 47.221 L 36.6803 67.8157 L 58.5042 67.8157 L 58.5042 47.221 ZM 58.5042 70.9815 L 36.6803 70.9815 L 36.6803 91.5762 L 58.5042 91.5762 L 58.5042 70.9815 ZM 58.5042 94.6753 L 36.6803 94.6753 L 36.6803 115.1034 L 58.5042 115.1034 L 58.5042 94.6753 ZM 54.2941 32.8581 C 54.2941 34.5243 54.7003 35.724 55.5204 36.4238 C 56.3327 37.157 57.7934 37.4902 59.8867 37.4902 C 61.9801 37.4902 63.472 37.1237 64.3624 36.3905 C 65.2607 35.6574 65.7059 34.491 65.7059 32.8581 L 65.7059 14.2296 C 65.7059 12.6301 65.2607 11.4637 64.3624 10.6972 C 63.472 9.9307 61.9801 9.5642 59.8867 9.5642 C 57.7934 9.5642 56.3327 9.9641 55.5204 10.7639 C 54.7003 11.5303 54.2941 12.6967 54.2941 14.2296 L 54.2941 32.8581 L 54.2941 32.8581 ZM 83.2416 47.221 L 61.4958 47.221 L 61.4958 67.8157 L 83.2416 67.8157 L 83.2416 47.221 ZM 83.2416 70.9815 L 61.4958 70.9815 L 61.4958 91.5762 L 83.2416 91.5762 L 83.2416 70.9815 ZM 83.2416 94.6753 L 61.4958 94.6753 L 61.4958 115.1034 L 83.2416 115.1034 L 83.2416 94.6753 ZM 107.9008 47.221 L 86.2253 47.221 L 86.2253 67.8157 L 107.9008 67.8157 L 107.9008 47.221 ZM 107.9008 70.9815 L 86.2253 70.9815 L 86.2253 91.5762 L 107.9008 91.5762 L 107.9008 70.9815 ZM 107.9008 94.6753 L 86.2253 94.6753 L 86.2253 115.1034 L 107.9008 115.1034 L 107.9008 94.6753 ZM 87.5298 32.8581 C 87.5298 35.9573 89.4669 37.4902 93.349 37.4902 C 97.231 37.4902 99.1447 35.9573 99.09 32.8581 L 99.09 14.2296 C 99.09 11.1304 97.1763 9.5642 93.349 9.5642 C 89.4669 9.5642 87.5298 11.1304 87.5298 14.2296 L 87.5298 32.8581 Z" fill="#9a9a9a"/></svg>