<?xml version="1.0" standalone="no"?><!-- Generator: Adobe Fireworks CS6, Export SVG Extension by Aaron Beall (http://fireworks.abeall.com) . Version: 0.6.1  --><!DOCTYPE svg PUBLIC "-//W3C//DTD SVG 1.1//EN" "http://www.w3.org/Graphics/SVG/1.1/DTD/svg11.dtd"><svg id="Untitled-Page%201" viewBox="0 0 201 296" style="background-color:#ffffff00" version="1.1"	xmlns="http://www.w3.org/2000/svg" xmlns:xlink="http://www.w3.org/1999/xlink" xml:space="preserve"	x="0px" y="0px" width="201px" height="296px">	<g id="Layer%201">		<path visibility="hidden" d="M 6.1699 2.8936 C 6.1699 3.1611 6.1309 3.416 6.0527 3.6572 C 5.9746 3.8984 5.8701 4.127 5.7393 4.3438 L 3.9248 7.5088 C 3.7939 7.7256 3.6426 7.834 3.4707 7.834 C 3.2979 7.834 3.1494 7.7256 3.0254 7.5088 L 1.2012 4.335 C 1.0703 4.1172 0.9658 3.8896 0.8877 3.6494 C 0.8086 3.4102 0.7695 3.1582 0.7695 2.8936 C 0.7695 2.5205 0.8398 2.168 0.9805 1.8379 C 1.1211 1.5078 1.3145 1.2197 1.5605 0.9736 C 1.8057 0.7285 2.0938 0.5352 2.4238 0.3945 C 2.7539 0.2539 3.1055 0.1836 3.4746 0.1836 C 3.8486 0.1836 4.1992 0.2539 4.5254 0.3945 C 4.8535 0.5352 5.1387 0.7285 5.3828 0.9736 C 5.627 1.2197 5.8193 1.5078 5.959 1.8379 C 6.0996 2.168 6.1699 2.5205 6.1699 2.8936 ZM 3.4746 4.2246 C 3.6563 4.2246 3.8301 4.1904 3.9941 4.1211 C 4.1582 4.0527 4.3018 3.958 4.4229 3.8369 C 4.5439 3.7158 4.6387 3.5732 4.707 3.4102 C 4.7764 3.248 4.8105 3.0752 4.8105 2.8936 C 4.8105 2.7119 4.7764 2.5381 4.707 2.374 C 4.6387 2.21 4.5439 2.0654 4.4229 1.9404 C 4.3018 1.8164 4.1602 1.7197 3.9971 1.6514 C 3.834 1.583 3.6602 1.5479 3.4746 1.5479 C 3.2871 1.5479 3.1133 1.583 2.9531 1.6514 C 2.793 1.7197 2.6514 1.8164 2.5273 1.9404 C 2.4023 2.0654 2.3066 2.209 2.2373 2.3721 C 2.1689 2.5342 2.1348 2.708 2.1348 2.8936 C 2.1348 3.0752 2.1689 3.248 2.2373 3.4102 C 2.3066 3.5732 2.4023 3.7158 2.5273 3.8369 C 2.6514 3.958 2.793 4.0527 2.9531 4.1211 C 3.1133 4.1904 3.2871 4.2246 3.4746 4.2246 Z" fill="#323232"/>		<path visibility="hidden" d="M 6.1699 2.8936 C 6.1699 3.1611 6.1309 3.416 6.0527 3.6572 C 5.9746 3.8984 5.8701 4.127 5.7393 4.3438 L 3.9248 7.5088 C 3.7939 7.7256 3.6426 7.834 3.4707 7.834 C 3.2979 7.834 3.1494 7.7256 3.0254 7.5088 L 1.2012 4.335 C 1.0703 4.1172 0.9658 3.8896 0.8877 3.6494 C 0.8086 3.4102 0.7695 3.1582 0.7695 2.8936 C 0.7695 2.5205 0.8398 2.168 0.9805 1.8379 C 1.1211 1.5078 1.3145 1.2197 1.5605 0.9736 C 1.8057 0.7285 2.0938 0.5352 2.4238 0.3945 C 2.7539 0.2539 3.1055 0.1836 3.4746 0.1836 C 3.8486 0.1836 4.1992 0.2539 4.5254 0.3945 C 4.8535 0.5352 5.1387 0.7285 5.3828 0.9736 C 5.627 1.2197 5.8193 1.5078 5.959 1.8379 C 6.0996 2.168 6.1699 2.5205 6.1699 2.8936 ZM 3.4746 4.2246 C 3.6563 4.2246 3.8301 4.1904 3.9941 4.1211 C 4.1582 4.0527 4.3018 3.958 4.4229 3.8369 C 4.5439 3.7158 4.6387 3.5732 4.707 3.4102 C 4.7764 3.248 4.8105 3.0752 4.8105 2.8936 C 4.8105 2.7119 4.7764 2.5381 4.707 2.374 C 4.6387 2.21 4.5439 2.0654 4.4229 1.9404 C 4.3018 1.8164 4.1602 1.7197 3.9971 1.6514 C 3.834 1.583 3.6602 1.5479 3.4746 1.5479 C 3.2871 1.5479 3.1133 1.583 2.9531 1.6514 C 2.793 1.7197 2.6514 1.8164 2.5273 1.9404 C 2.4023 2.0654 2.3066 2.209 2.2373 2.3721 C 2.1689 2.5342 2.1348 2.708 2.1348 2.8936 C 2.1348 3.0752 2.1689 3.248 2.2373 3.4102 C 2.3066 3.5732 2.4023 3.7158 2.5273 3.8369 C 2.6514 3.958 2.793 4.0527 2.9531 4.1211 C 3.1133 4.1904 3.2871 4.2246 3.4746 4.2246 Z" fill="#323232"/>		<path visibility="hidden" d="M 6.1699 2.8936 C 6.1699 3.1611 6.1309 3.416 6.0527 3.6572 C 5.9746 3.8984 5.8701 4.127 5.7393 4.3438 L 3.9248 7.5088 C 3.7939 7.7256 3.6426 7.834 3.4707 7.834 C 3.2979 7.834 3.1494 7.7256 3.0254 7.5088 L 1.2012 4.335 C 1.0703 4.1172 0.9658 3.8896 0.8877 3.6494 C 0.8086 3.4102 0.7695 3.1582 0.7695 2.8936 C 0.7695 2.5205 0.8398 2.168 0.9805 1.8379 C 1.1211 1.5078 1.3145 1.2197 1.5605 0.9736 C 1.8057 0.7285 2.0938 0.5352 2.4238 0.3945 C 2.7539 0.2539 3.1055 0.1836 3.4746 0.1836 C 3.8486 0.1836 4.1992 0.2539 4.5254 0.3945 C 4.8535 0.5352 5.1387 0.7285 5.3828 0.9736 C 5.627 1.2197 5.8193 1.5078 5.959 1.8379 C 6.0996 2.168 6.1699 2.5205 6.1699 2.8936 ZM 3.4746 4.2246 C 3.6563 4.2246 3.8301 4.1904 3.9941 4.1211 C 4.1582 4.0527 4.3018 3.958 4.4229 3.8369 C 4.5439 3.7158 4.6387 3.5732 4.707 3.4102 C 4.7764 3.248 4.8105 3.0752 4.8105 2.8936 C 4.8105 2.7119 4.7764 2.5381 4.707 2.374 C 4.6387 2.21 4.5439 2.0654 4.4229 1.9404 C 4.3018 1.8164 4.1602 1.7197 3.9971 1.6514 C 3.834 1.583 3.6602 1.5479 3.4746 1.5479 C 3.2871 1.5479 3.1133 1.583 2.9531 1.6514 C 2.793 1.7197 2.6514 1.8164 2.5273 1.9404 C 2.4023 2.0654 2.3066 2.209 2.2373 2.3721 C 2.1689 2.5342 2.1348 2.708 2.1348 2.8936 C 2.1348 3.0752 2.1689 3.248 2.2373 3.4102 C 2.3066 3.5732 2.4023 3.7158 2.5273 3.8369 C 2.6514 3.958 2.793 4.0527 2.9531 4.1211 C 3.1133 4.1904 3.2871 4.2246 3.4746 4.2246 Z" fill="#323232"/>		<path d="M 201 104.8506 C 201 115.2035 199.5533 125.0651 196.66 134.3978 C 193.7667 143.7304 189.8969 152.5719 185.0506 160.9599 L 117.8535 283.4179 C 113.0072 291.806 107.4015 296 101.0362 296 C 94.6347 296 89.1374 291.806 84.5443 283.4179 L 16.9855 160.6199 C 12.1392 152.194 8.2694 143.3904 5.3761 134.0955 C 2.4467 124.8384 1 115.0901 1 104.8506 C 1 90.4172 3.604 76.7771 8.8119 64.0061 C 14.0199 51.2351 21.1808 40.0888 30.2948 30.5673 C 39.3725 21.0835 50.0416 13.6022 62.2658 8.1613 C 74.4901 2.7204 87.5099 0 101.1808 0 C 115.0326 0 128.0163 2.7204 140.0958 8.1613 C 152.2477 13.6022 162.8083 21.0835 171.8499 30.5673 C 180.8915 40.0888 188.0163 51.2351 193.1881 64.0061 C 198.396 76.7771 201 90.4172 201 104.8506 ZM 101.1808 156.3503 C 107.9078 156.3503 114.3454 155.0278 120.4213 152.3452 C 126.4973 149.7003 131.8138 146.0352 136.2984 141.35 C 140.783 136.6648 144.2911 131.1483 146.8228 124.8384 C 149.3906 118.5662 150.6564 111.8785 150.6564 104.8506 C 150.6564 97.8228 149.3906 91.0973 146.8228 84.7495 C 144.2911 78.4018 140.783 72.8098 136.2984 67.9734 C 131.8138 63.1749 126.5696 59.4343 120.5298 56.7894 C 114.4901 54.1445 108.0524 52.7843 101.1808 52.7843 C 94.2369 52.7843 87.7993 54.1445 81.868 56.7894 C 75.9367 59.4343 70.6926 63.1749 66.0995 67.9734 C 61.4702 72.8098 57.9259 78.3641 55.358 84.674 C 52.8264 90.9461 51.5606 97.6717 51.5606 104.8506 C 51.5606 111.8785 52.8264 118.5662 55.358 124.8384 C 57.9259 131.1483 61.4702 136.6648 66.0995 141.35 C 70.6926 146.0352 75.9367 149.7003 81.868 152.3452 C 87.7993 155.0278 94.2369 156.3503 101.1808 156.3503 Z" fill="#9a9a9a"/>	</g></svg>